<svg width="1600" height="512" viewBox="0 0 1600 512" fill="none" xmlns="http://www.w3.org/2000/svg" role="img" aria-labelledby="title desc">
  <title id="title">AI Arena logo</title>
  <desc id="desc">A premium abstract arena mark with opposing idea forms and a central judge sigil, followed by the AI Arena wordmark.</desc>
  <defs>
    <linearGradient id="arenaRing" x1="110" y1="98" x2="402" y2="414" gradientUnits="userSpaceOnUse">
      <stop offset="0" stop-color="#4CC9D8"/>
      <stop offset="0.48" stop-color="#8F7AF5"/>
      <stop offset="1" stop-color="#D8B45A"/>
    </linearGradient>
    <linearGradient id="leftForce" x1="124" y1="166" x2="273" y2="331" gradientUnits="userSpaceOnUse">
      <stop offset="0" stop-color="#4CC9D8"/>
      <stop offset="1" stop-color="#51B89F"/>
    </linearGradient>
    <linearGradient id="rightForce" x1="389" y1="166" x2="238" y2="331" gradientUnits="userSpaceOnUse">
      <stop offset="0" stop-color="#E46363"/>
      <stop offset="1" stop-color="#D8B45A"/>
    </linearGradient>
    <linearGradient id="judgeGold" x1="216" y1="177" x2="296" y2="335" gradientUnits="userSpaceOnUse">
      <stop offset="0" stop-color="#F0C66A"/>
      <stop offset="1" stop-color="#D8B45A"/>
    </linearGradient>
    <filter id="softGlow" x="60" y="48" width="392" height="416" filterUnits="userSpaceOnUse" color-interpolation-filters="sRGB">
      <feFlood flood-opacity="0" result="BackgroundImageFix"/>
      <feColorMatrix in="SourceAlpha" type="matrix" values="0 0 0 0 0 0 0 0 0 0 0 0 0 0 0 0 0 0 127 0" result="hardAlpha"/>
      <feOffset/>
      <feGaussianBlur stdDeviation="12"/>
      <feComposite in2="hardAlpha" operator="out"/>
      <feColorMatrix type="matrix" values="0 0 0 0 0.298 0 0 0 0 0.788 0 0 0 0 0.847 0 0 0 0.22 0"/>
      <feBlend mode="normal" in2="BackgroundImageFix" result="effect1_dropShadow"/>
      <feBlend mode="normal" in="SourceGraphic" in2="effect1_dropShadow" result="shape"/>
    </filter>
  </defs>
  <g filter="url(#softGlow)">
    <path d="M256 72C357.62 72 440 154.38 440 256C440 357.62 357.62 440 256 440C154.38 440 72 357.62 72 256C72 154.38 154.38 72 256 72Z" stroke="url(#arenaRing)" stroke-width="18"/>
    <path d="M256 122C330.01 122 390 181.99 390 256C390 330.01 330.01 390 256 390C181.99 390 122 330.01 122 256C122 181.99 181.99 122 256 122Z" stroke="#F3F5F7" stroke-opacity="0.16" stroke-width="3"/>
    <path d="M109 256C153 194 201 164 253 166C224 202 209 232 209 256C209 280 224 310 253 346C201 348 153 318 109 256Z" fill="url(#leftForce)"/>
    <path d="M403 256C359 194 311 164 259 166C288 202 303 232 303 256C303 280 288 310 259 346C311 348 359 318 403 256Z" fill="url(#rightForce)"/>
    <path d="M256 178L322 256L256 334L190 256L256 178Z" fill="#0D0F14" stroke="url(#judgeGold)" stroke-width="10" stroke-linejoin="round"/>
    <path d="M256 215L291 256L256 297L221 256L256 215Z" fill="url(#judgeGold)"/>
    <path d="M173 256H221M291 256H339" stroke="#F3F5F7" stroke-opacity="0.72" stroke-width="8" stroke-linecap="round"/>
    <circle cx="256" cy="256" r="11" fill="#F3F5F7"/>
  </g>
  <g>
    <text x="520" y="250" fill="#F3F5F7" font-family="Inter, Avenir Next, Segoe UI, Arial, sans-serif" font-size="104" font-weight="760" letter-spacing="0">AI</text>
    <text x="657" y="250" fill="#D8B45A" font-family="Inter, Avenir Next, Segoe UI, Arial, sans-serif" font-size="104" font-weight="760" letter-spacing="0">Arena</text>
    <path d="M526 296H970" stroke="url(#arenaRing)" stroke-width="8" stroke-linecap="round"/>
    <text x="520" y="348" fill="#A7AFBC" font-family="Inter, Avenir Next, Segoe UI, Arial, sans-serif" font-size="34" font-weight="520" letter-spacing="0">competition of ideas</text>
  </g>
</svg>
